HIERARCHY
ROOT Hips
{
	OFFSET -0.179506 -22.333345 2.821913
	CHANNELS 6 Xposition Yposition Zposition Zrotation Yrotation Xrotation 
	JOINT LeftUpLeg
	{
		OFFSET 6.951974 -9.140623 -0.681533
		CHANNELS 3 Zrotation Yrotation Xrotation
		JOINT LeftLeg
		{
			OFFSET 3.427654 -37.519855 -0.449580
			CHANNELS 3 Zrotation Yrotation Xrotation
			JOINT LeftFoot
			{
				OFFSET -1.359570 -39.796059 -4.369333
				CHANNELS 3 Zrotation Yrotation Xrotation
				JOINT LeftToe
				{
					OFFSET 2.635814 -5.579078 11.928840
					CHANNELS 3 Zrotation Yrotation Xrotation
					End Site
					{
						OFFSET 0.000000 0.000000 0.000000
					}
				}
			}
		}
	}
	JOINT RightUpLeg
	{
		OFFSET -6.767048 -9.052170 -0.431982
		CHANNELS 3 Zrotation Yrotation Xrotation
		JOINT RightLeg
		{
			OFFSET -3.829005 -38.256897 -0.885003
			CHANNELS 3 Zrotation Yrotation Xrotation
			JOINT RightFoot
			{
				OFFSET 1.577377 -39.841461 -4.231180
				CHANNELS 3 Zrotation Yrotation Xrotation
				JOINT RightToe
				{
					OFFSET -2.537174 -4.814398 12.334795
					CHANNELS 3 Zrotation Yrotation Xrotation
					End Site
					{
						OFFSET 0.000000 0.000000 0.000000
					}
				}
			}
		}
	}
	JOINT Spine
	{
		OFFSET -0.253288 10.896323 -2.669631
		CHANNELS 3 Zrotation Yrotation Xrotation
		JOINT Spine1
		{
			OFFSET 0.548704 13.518043 0.109247
			CHANNELS 3 Zrotation Yrotation Xrotation
			JOINT Spine2
			{
				OFFSET 0.145701 5.292222 2.542457
				CHANNELS 3 Zrotation Yrotation Xrotation
				JOINT Neck
				{
					OFFSET -0.277840 21.387037 -4.285703
					CHANNELS 3 Zrotation Yrotation Xrotation
					JOINT Head
					{
						OFFSET 0.515184 6.496960 5.134897
						CHANNELS 3 Zrotation Yrotation Xrotation
						End Site
						{
							OFFSET 0.000000 0.000000 0.000000
						}
					}
				}
				JOINT LeftShoulder
				{
					OFFSET 7.884473 12.174932 -3.408961
					CHANNELS 3 Zrotation Yrotation Xrotation
					JOINT LeftArm
					{
						OFFSET 9.097692 3.046888 -0.886815
						CHANNELS 3 Zrotation Yrotation Xrotation
						JOINT LeftForeArm
						{
							OFFSET 25.961220 -1.277207 -2.745643
							CHANNELS 3 Zrotation Yrotation Xrotation
							JOINT LeftHand
							{
								OFFSET 24.923361 0.898606 -0.117091
								CHANNELS 3 Zrotation Yrotation Xrotation
								End Site
								{
									OFFSET 0.000000 0.000000 0.000000
								}
							}
						}
					}
				}
				JOINT RightShoulder
				{
					OFFSET -8.175920 11.883285 -3.861528
					CHANNELS 3 Zrotation Yrotation Xrotation
					JOINT RightArm
					{
						OFFSET -9.601238 3.255117 -0.914307
						CHANNELS 3 Zrotation Yrotation Xrotation
						JOINT RightForeArm
						{
							OFFSET -25.374195 -1.332924 -2.140099
							CHANNELS 3 Zrotation Yrotation Xrotation
							JOINT RightHand
							{
								OFFSET -25.529810 0.777228 -0.555919
								CHANNELS 3 Zrotation Yrotation Xrotation
								End Site
								{
									OFFSET 0.000000 0.000000 0.000000
								}
							}
						}
					}
				}
			}
		}
	}
}
MOTION
Frames: 13
Frame Time: 0.033333
-257.599091 237.535629 92.100945 41.695006 0.839316 93.132788 -0.618975 -12.050644 -37.431600 -7.071413 -1.298641 19.403685 8.377092 8.641259 -1.634695 nan nan nan -3.213169 -10.365326 32.138048 5.241604 3.884127 64.688328 7.139634 -3.415503 2.724127 nan nan nan -6.755381 18.464245 1.383949 2.841936 1.501540 5.064343 -0.379688 10.400905 -2.353739 1.541780 -12.789815 -0.958898 11.770969 -15.310072 -16.265591 -9.319354 2.799490 0.983934 -30.549281 16.557177 15.493604 -133.555226 -67.976215 172.650646 4.610156 -3.155176 -8.695564 12.627481 10.887731 0.471957 45.592944 1.972840 4.374898 -115.594220 77.776273 -88.028688 4.222506 2.826718 -7.276933 
-255.256271 234.915665 91.550850 42.544061 0.492570 93.053988 -1.376829 -11.634689 -36.394090 -7.069765 1.065922 20.816379 7.867951 6.862497 -0.640378 nan nan nan -3.366116 -10.185815 30.207416 4.194314 1.371296 70.553168 5.902764 -2.499348 2.087493 nan nan nan -7.973343 17.248075 -0.632981 3.457402 1.113063 9.812898 -0.469748 9.617446 -4.950984 1.562344 -13.070227 -0.636357 11.737982 -13.842832 -16.778887 -10.675914 2.029266 0.663524 -35.865594 14.999866 13.195198 -128.296443 -74.416089 165.193578 -21.884951 1.225105 -16.817504 13.123332 9.885014 0.190590 47.589363 1.116572 4.579146 -101.206159 79.835154 -73.878015 34.810748 1.877837 -17.163715 
-252.900635 232.248657 90.952629 43.493726 0.094426 92.609664 -2.547694 -11.043473 -34.787715 -7.215567 2.553012 21.832236 8.691817 6.838801 1.971744 nan nan nan -3.429649 -9.982354 28.615510 3.279791 -0.633496 76.116596 5.872155 -3.076865 1.306775 nan nan nan -8.471159 16.500042 0.260652 3.341649 0.782209 9.465711 -0.449469 8.842238 -5.328365 1.735758 -13.145619 0.859732 12.295892 -12.385456 -18.396625 -13.817932 1.739447 1.297073 -36.414386 12.927230 12.893776 -129.947963 -76.806184 161.900061 -5.084004 4.915286 -11.596017 15.773848 7.769147 0.446505 47.830248 -1.662161 7.404137 -106.181017 81.196820 -78.486989 5.817078 1.294334 -1.813880 
-250.532013 229.547974 90.282883 44.767903 -0.278588 91.584105 -3.564923 -10.883686 -32.673806 -9.830131 1.465473 24.046348 11.438821 7.098868 -1.143560 nan nan nan -3.756816 -9.986058 27.585787 2.661865 -2.533352 81.450875 5.390427 -4.005789 -0.247601 nan nan nan -8.550356 15.557407 2.149904 2.874817 0.244085 8.403298 -0.425658 7.640767 -5.296698 2.175960 -13.805064 1.407775 12.488614 -10.318271 -18.041868 -16.143664 0.845106 2.318757 -37.911380 11.684407 11.818119 -140.979701 -79.278855 172.324214 2.363030 6.238626 -7.450152 16.888215 6.738400 0.148150 50.967230 -4.301755 7.425787 -78.622154 81.567930 -52.128244 2.270439 1.570100 0.050903 
-248.155167 226.977814 89.598022 46.007826 -0.742475 91.071756 -4.995159 -10.378911 -32.142159 -12.146393 1.041643 29.113636 16.335976 8.828379 -5.679953 nan nan nan -4.579510 -10.212243 26.009658 2.227084 -3.831774 86.775671 4.978510 -5.163823 -1.284499 nan nan nan -8.624175 14.487037 3.261046 2.207834 -0.291874 7.636076 -0.166868 6.363226 -4.865877 2.008294 -15.472357 2.170961 12.603205 -7.237155 -18.356479 -20.598641 -0.332507 3.164862 -38.357780 11.015439 12.035138 -172.832682 -80.595621 -161.475038 15.600506 7.187110 4.930577 19.075837 6.301173 -0.510852 49.311762 -7.338867 9.140229 -54.112662 82.103930 -33.067088 -4.079435 1.619111 5.644127 
-245.848694 224.503464 88.907494 47.391547 -0.964657 90.803757 -6.310165 -9.426417 -31.942643 -12.353540 1.915827 34.749024 17.671321 8.722030 -10.870702 nan nan nan -5.107162 -10.817842 23.850700 1.296367 -4.562037 92.233636 4.597621 -5.407958 -3.060862 nan nan nan -8.363928 13.233743 4.691045 1.675915 -0.943926 6.451824 -0.274459 4.995914 -4.880288 2.242770 -15.833827 2.842305 12.410910 -5.534690 -18.050121 -23.209996 -1.202487 3.383495 -38.758156 9.083996 11.669517 171.199410 -79.599146 -145.253746 20.065378 6.343829 8.556772 20.457704 5.462386 -0.920008 48.987760 -9.674326 10.180889 -29.581302 80.477556 -10.346974 -6.411593 1.317522 6.042847 
-243.615509 222.130646 88.286125 49.076298 -1.186546 90.652967 -6.834097 -9.297707 -31.950606 -11.217189 4.104052 39.698094 16.555183 5.947051 -14.443784 nan nan nan -4.710919 -10.206400 21.019444 -0.478143 -6.094988 97.500608 5.194794 -4.456123 -4.333176 nan nan nan -8.081984 11.675013 6.691426 1.115296 -1.563758 4.698267 -0.507029 3.736146 -4.899214 3.059827 -15.331045 3.096089 12.266271 -4.665476 -17.959361 -24.809613 -1.666109 3.724613 -39.875085 5.978918 11.914529 160.545691 -78.413381 -134.061276 22.206560 2.647111 8.102109 21.256957 3.612629 -1.654535 49.269606 -12.153279 11.266440 -14.159768 78.311497 5.748607 -11.342703 6.104973 7.410310 
-241.422241 220.064804 87.872284 50.853015 -2.829384 90.762999 -8.503581 -11.849757 -30.538411 -11.117895 4.905162 40.666240 16.643990 6.684533 -15.744639 nan nan nan -6.203453 -9.050856 16.889692 -1.555217 -7.653825 103.436278 6.034940 -3.583547 -4.091571 nan nan nan -9.048951 10.426429 8.012037 0.450561 -2.602092 4.389357 -0.965404 2.211354 -5.547240 3.989793 -14.632850 2.982465 12.482478 -4.019765 -17.627689 -26.284670 -2.824022 3.878365 -40.650409 2.722887 12.464119 150.442780 -76.471729 -122.288571 17.552572 1.663607 7.080778 22.395397 1.988400 -2.273324 50.382254 -14.285053 11.190347 -10.461968 74.834064 11.558372 -4.564068 6.500231 7.584086 
-239.285110 218.185043 87.669418 52.219224 -4.640745 91.034372 -10.348117 -14.706028 -28.303775 -12.626249 4.092331 39.610438 17.870449 9.639924 -16.164987 nan nan nan -8.030855 -7.816267 11.749274 -1.679856 -8.294546 109.498029 7.420793 -3.498420 -4.124239 nan nan nan -9.810974 9.302686 9.436845 -0.470100 -3.382344 3.912356 -1.288855 0.353416 -6.242636 4.588075 -14.121328 3.067296 12.598577 -3.124666 -17.646966 -28.374954 -4.220285 3.415266 -39.970542 -0.628678 13.428017 143.522660 -74.623639 -114.462274 15.058317 3.827756 8.792293 23.560722 0.947075 -2.920205 48.790504 -15.593274 12.761667 -2.783496 70.391251 19.740768 -2.428676 3.115263 7.928332 
-236.855057 216.017044 87.497765 55.098155 -6.264773 90.336782 -13.854660 -16.875664 -23.699149 -12.604419 1.778210 38.282903 19.404035 11.928833 -17.111714 nan nan nan -10.377356 -7.855869 9.046426 -1.095645 -9.104365 112.482634 8.013844 -3.608076 -3.280915 nan nan nan -10.441626 7.913268 11.083691 -1.117275 -4.941988 3.664303 -1.449892 -1.586580 -6.657523 4.705587 -14.452939 3.510753 12.809848 -1.452492 -17.066909 -29.535334 -6.166596 3.781015 -39.618832 -4.538917 13.294762 139.191699 -73.749472 -110.357425 16.222609 3.387850 10.990460 23.913384 0.010622 -2.883672 48.810497 -17.643753 12.696825 0.312343 67.378257 24.492970 -2.139850 4.170868 12.909746 
-234.967941 213.936584 87.272629 55.618464 -6.979971 91.248244 -14.988664 -16.857049 -21.784404 -13.046704 0.240255 37.581248 20.304679 12.972285 -18.025853 nan nan nan -10.497615 -6.891675 1.995379 -0.200209 -9.470405 117.648825 8.823022 -2.283253 -3.147615 nan nan nan -10.686791 6.793162 12.486187 -1.632015 -5.230618 1.092720 -1.355878 -2.979307 -6.396920 4.485768 -13.478202 3.792631 12.877386 -0.577320 -16.682813 -28.992685 -7.939587 4.283580 -41.204709 -8.215683 12.951388 135.726974 -72.989846 -105.724160 18.703830 1.803188 10.105784 22.820525 -1.068602 -2.384511 49.754998 -19.180422 11.508165 4.156486 64.215248 32.444742 -2.665421 6.529784 17.089059 
-232.550339 211.456772 87.268608 58.238744 -6.126322 89.706700 -15.615620 -16.083688 -16.648805 -13.470403 -2.864744 37.496182 20.505099 13.753572 -19.867758 nan nan nan -9.464549 -7.176241 -0.539324 0.056102 -9.889198 119.058316 7.882410 -3.224446 -1.521671 nan nan nan -9.096963 4.487961 15.043391 -1.769466 -6.201547 -0.067682 -1.102518 -4.125977 -6.368973 2.933945 -13.701805 5.262188 13.213484 1.702786 -17.299573 -28.498428 -9.586048 4.892060 -42.618254 -11.881953 12.006219 133.314435 -72.675364 -103.722777 22.176489 0.975735 8.159974 21.207599 -1.842589 -1.792290 50.130941 -20.794347 10.765700 8.864712 60.717906 37.776727 -7.786791 9.849627 18.435598 
-230.401855 209.104462 87.258209 59.311626 -5.101503 88.439686 -15.210694 -13.678092 -12.345595 -14.394119 -6.015124 37.343984 20.363923 14.486552 -21.686823 nan nan nan -8.271129 -6.850811 -4.192308 1.354154 -10.207142 121.481225 8.254291 -1.530273 -2.065241 nan nan nan -7.559439 2.495040 18.090856 -2.002490 -6.477795 -2.216450 -0.751206 -5.037105 -5.936703 1.977336 -12.913606 5.125396 13.251239 2.786228 -17.307809 -27.326450 -11.069311 4.421237 -44.170499 -15.242481 11.475543 133.284016 -71.978335 -105.090908 24.780820 0.850048 4.523468 19.059605 -2.415981 -1.560407 50.542727 -23.333452 10.506935 12.509200 58.009618 40.844661 -12.695987 11.501886 19.344564 
